<mxfile host="app.diagrams.net" modified="2021-02-19T00:50:44.041Z" agent="5.0 (X11; Linux x86_64) AppleWebKit/537.36 (KHTML, like Gecko) Chrome/88.0.4324.150 Safari/537.36" etag="5aQkyWax_68INWb8Q8zc" version="14.4.2" type="github">
  <diagram id="C5RBs43oDa-KdzZeNtuy" name="Page-1">
    <mxGraphModel dx="1839" dy="957" grid="1" gridSize="10" guides="1" tooltips="1" connect="1" arrows="1" fold="1" page="1" pageScale="1" pageWidth="827" pageHeight="1169" math="0" shadow="0">
      <root>
        <mxCell id="WIyWlLk6GJQsqaUBKTNV-0" />
        <mxCell id="WIyWlLk6GJQsqaUBKTNV-1" parent="WIyWlLk6GJQsqaUBKTNV-0" />
        <mxCell id="EivdhIYTFzwHok7C5iKz-7" value="" style="edgeStyle=entityRelationEdgeStyle;fontSize=12;html=1;endArrow=ERoneToMany;exitX=1;exitY=0.25;exitDx=0;exitDy=0;entryX=0;entryY=0.25;entryDx=0;entryDy=0;" edge="1" parent="WIyWlLk6GJQsqaUBKTNV-1" source="EivdhIYTFzwHok7C5iKz-46" target="EivdhIYTFzwHok7C5iKz-9">
          <mxGeometry width="100" height="100" relative="1" as="geometry">
            <mxPoint x="220" y="292.5" as="sourcePoint" />
            <mxPoint x="300" y="290" as="targetPoint" />
          </mxGeometry>
        </mxCell>
        <mxCell id="EivdhIYTFzwHok7C5iKz-8" value="Profile" style="swimlane;childLayout=stackLayout;horizontal=1;startSize=30;horizontalStack=0;rounded=1;fontSize=14;fontStyle=0;strokeWidth=2;resizeParent=0;resizeLast=1;shadow=0;dashed=0;align=center;" vertex="1" parent="WIyWlLk6GJQsqaUBKTNV-1">
          <mxGeometry x="254" y="240" width="160" height="120" as="geometry" />
        </mxCell>
        <mxCell id="EivdhIYTFzwHok7C5iKz-9" value="+ id&#xa;+ attention span&#xa;" style="align=left;strokeColor=none;fillColor=none;spacingLeft=4;fontSize=12;verticalAlign=top;resizable=0;rotatable=0;part=1;" vertex="1" parent="EivdhIYTFzwHok7C5iKz-8">
          <mxGeometry y="30" width="160" height="90" as="geometry" />
        </mxCell>
        <mxCell id="EivdhIYTFzwHok7C5iKz-10" value="Course Performance" style="swimlane;childLayout=stackLayout;horizontal=1;startSize=30;horizontalStack=0;rounded=1;fontSize=14;fontStyle=0;strokeWidth=2;resizeParent=0;resizeLast=1;shadow=0;dashed=0;align=center;" vertex="1" parent="WIyWlLk6GJQsqaUBKTNV-1">
          <mxGeometry x="450" y="240" width="220" height="120" as="geometry" />
        </mxCell>
        <mxCell id="EivdhIYTFzwHok7C5iKz-11" value="+ proficiency" style="align=left;strokeColor=none;fillColor=none;spacingLeft=4;fontSize=12;verticalAlign=top;resizable=0;rotatable=0;part=1;" vertex="1" parent="EivdhIYTFzwHok7C5iKz-10">
          <mxGeometry y="30" width="220" height="90" as="geometry" />
        </mxCell>
        <mxCell id="EivdhIYTFzwHok7C5iKz-12" value="" style="edgeStyle=entityRelationEdgeStyle;fontSize=12;html=1;endArrow=ERoneToMany;entryX=0;entryY=0.25;entryDx=0;entryDy=0;exitX=1;exitY=0.25;exitDx=0;exitDy=0;" edge="1" parent="WIyWlLk6GJQsqaUBKTNV-1" source="EivdhIYTFzwHok7C5iKz-9" target="EivdhIYTFzwHok7C5iKz-11">
          <mxGeometry width="100" height="100" relative="1" as="geometry">
            <mxPoint x="430" y="280" as="sourcePoint" />
            <mxPoint x="474" y="279.9999999999999" as="targetPoint" />
          </mxGeometry>
        </mxCell>
        <mxCell id="EivdhIYTFzwHok7C5iKz-20" value="Lesson Performance" style="swimlane;childLayout=stackLayout;horizontal=1;startSize=30;horizontalStack=0;rounded=1;fontSize=14;fontStyle=0;strokeWidth=2;resizeParent=0;resizeLast=1;shadow=0;dashed=0;align=center;" vertex="1" parent="WIyWlLk6GJQsqaUBKTNV-1">
          <mxGeometry x="770" y="180" width="220" height="120" as="geometry" />
        </mxCell>
        <mxCell id="EivdhIYTFzwHok7C5iKz-21" value="+ responseTime (avg. per question)&#xa;+ numAttempts&#xa;+ accuracy&#xa;+ tag (1-hot encoded)" style="align=left;strokeColor=none;fillColor=none;spacingLeft=4;fontSize=12;verticalAlign=top;resizable=0;rotatable=0;part=1;" vertex="1" parent="EivdhIYTFzwHok7C5iKz-20">
          <mxGeometry y="30" width="220" height="90" as="geometry" />
        </mxCell>
        <mxCell id="EivdhIYTFzwHok7C5iKz-24" value="Course" style="swimlane;childLayout=stackLayout;horizontal=1;startSize=30;horizontalStack=0;rounded=1;fontSize=14;fontStyle=0;strokeWidth=2;resizeParent=0;resizeLast=1;shadow=0;dashed=0;align=center;" vertex="1" parent="WIyWlLk6GJQsqaUBKTNV-1">
          <mxGeometry x="40" y="440" width="160" height="120" as="geometry" />
        </mxCell>
        <mxCell id="EivdhIYTFzwHok7C5iKz-25" value="+ name" style="align=left;strokeColor=none;fillColor=none;spacingLeft=4;fontSize=12;verticalAlign=top;resizable=0;rotatable=0;part=1;" vertex="1" parent="EivdhIYTFzwHok7C5iKz-24">
          <mxGeometry y="30" width="160" height="90" as="geometry" />
        </mxCell>
        <mxCell id="EivdhIYTFzwHok7C5iKz-26" value="Lesson" style="swimlane;childLayout=stackLayout;horizontal=1;startSize=30;horizontalStack=0;rounded=1;fontSize=14;fontStyle=0;strokeWidth=2;resizeParent=0;resizeLast=1;shadow=0;dashed=0;align=center;" vertex="1" parent="WIyWlLk6GJQsqaUBKTNV-1">
          <mxGeometry x="260" y="440" width="160" height="120" as="geometry" />
        </mxCell>
        <mxCell id="EivdhIYTFzwHok7C5iKz-27" value="+ difficultyRating&#xa;+ priorAttempts&#xa;+ points" style="align=left;strokeColor=none;fillColor=none;spacingLeft=4;fontSize=12;verticalAlign=top;resizable=0;rotatable=0;part=1;" vertex="1" parent="EivdhIYTFzwHok7C5iKz-26">
          <mxGeometry y="30" width="160" height="90" as="geometry" />
        </mxCell>
        <mxCell id="EivdhIYTFzwHok7C5iKz-28" value="" style="edgeStyle=entityRelationEdgeStyle;fontSize=12;html=1;endArrow=ERoneToMany;entryX=0;entryY=0.25;entryDx=0;entryDy=0;exitX=1;exitY=0.25;exitDx=0;exitDy=0;" edge="1" parent="WIyWlLk6GJQsqaUBKTNV-1" source="EivdhIYTFzwHok7C5iKz-25" target="EivdhIYTFzwHok7C5iKz-27">
          <mxGeometry width="100" height="100" relative="1" as="geometry">
            <mxPoint x="190" y="490" as="sourcePoint" />
            <mxPoint x="256" y="490" as="targetPoint" />
          </mxGeometry>
        </mxCell>
        <mxCell id="EivdhIYTFzwHok7C5iKz-22" value="" style="edgeStyle=entityRelationEdgeStyle;fontSize=12;html=1;endArrow=ERoneToMany;exitX=1;exitY=0.2;exitDx=0;exitDy=0;exitPerimeter=0;entryX=-0.007;entryY=0.185;entryDx=0;entryDy=0;entryPerimeter=0;" edge="1" parent="WIyWlLk6GJQsqaUBKTNV-1" source="EivdhIYTFzwHok7C5iKz-11" target="EivdhIYTFzwHok7C5iKz-21">
          <mxGeometry width="100" height="100" relative="1" as="geometry">
            <mxPoint x="720" y="302.5" as="sourcePoint" />
            <mxPoint x="786" y="302.5" as="targetPoint" />
          </mxGeometry>
        </mxCell>
        <mxCell id="EivdhIYTFzwHok7C5iKz-30" value="Course Statistic" style="swimlane;childLayout=stackLayout;horizontal=1;startSize=30;horizontalStack=0;rounded=1;fontSize=14;fontStyle=0;strokeWidth=2;resizeParent=0;resizeLast=1;shadow=0;dashed=0;align=center;" vertex="1" parent="WIyWlLk6GJQsqaUBKTNV-1">
          <mxGeometry x="-30" y="620" width="300" height="120" as="geometry" />
        </mxCell>
        <mxCell id="EivdhIYTFzwHok7C5iKz-31" value="+ totalAttempts&#xa;+ meanAccuracy&#xa;+ meanEngagement (function of attention span)" style="align=left;strokeColor=none;fillColor=none;spacingLeft=4;fontSize=12;verticalAlign=top;resizable=0;rotatable=0;part=1;" vertex="1" parent="EivdhIYTFzwHok7C5iKz-30">
          <mxGeometry y="30" width="300" height="90" as="geometry" />
        </mxCell>
        <mxCell id="EivdhIYTFzwHok7C5iKz-32" value="" style="fontSize=12;html=1;endArrow=ERoneToMany;exitX=0.5;exitY=1;exitDx=0;exitDy=0;entryX=0.5;entryY=0;entryDx=0;entryDy=0;edgeStyle=orthogonalEdgeStyle;curved=1;" edge="1" parent="WIyWlLk6GJQsqaUBKTNV-1" source="EivdhIYTFzwHok7C5iKz-25" target="EivdhIYTFzwHok7C5iKz-30">
          <mxGeometry width="100" height="100" relative="1" as="geometry">
            <mxPoint x="134" y="590" as="sourcePoint" />
            <mxPoint x="120" y="610" as="targetPoint" />
          </mxGeometry>
        </mxCell>
        <mxCell id="EivdhIYTFzwHok7C5iKz-34" value="Day Performance" style="swimlane;childLayout=stackLayout;horizontal=1;startSize=30;horizontalStack=0;rounded=1;fontSize=14;fontStyle=0;strokeWidth=2;resizeParent=0;resizeLast=1;shadow=0;dashed=0;align=center;" vertex="1" parent="WIyWlLk6GJQsqaUBKTNV-1">
          <mxGeometry x="770" y="320" width="220" height="120" as="geometry" />
        </mxCell>
        <mxCell id="EivdhIYTFzwHok7C5iKz-35" value="+ timeSpent&#xa;+ proficiencyAchieved&#xa;+ engagementValue" style="align=left;strokeColor=none;fillColor=none;spacingLeft=4;fontSize=12;verticalAlign=top;resizable=0;rotatable=0;part=1;" vertex="1" parent="EivdhIYTFzwHok7C5iKz-34">
          <mxGeometry y="30" width="220" height="90" as="geometry" />
        </mxCell>
        <mxCell id="EivdhIYTFzwHok7C5iKz-36" value="" style="edgeStyle=entityRelationEdgeStyle;fontSize=12;html=1;endArrow=ERoneToMany;exitX=1.002;exitY=0.413;exitDx=0;exitDy=0;exitPerimeter=0;entryX=0;entryY=0.5;entryDx=0;entryDy=0;" edge="1" parent="WIyWlLk6GJQsqaUBKTNV-1" source="EivdhIYTFzwHok7C5iKz-11" target="EivdhIYTFzwHok7C5iKz-35">
          <mxGeometry width="100" height="100" relative="1" as="geometry">
            <mxPoint x="680" y="297.9999999999998" as="sourcePoint" />
            <mxPoint x="778.4600000000003" y="236.64999999999986" as="targetPoint" />
          </mxGeometry>
        </mxCell>
        <mxCell id="EivdhIYTFzwHok7C5iKz-45" value="Profile" style="swimlane;childLayout=stackLayout;horizontal=1;startSize=30;horizontalStack=0;rounded=1;fontSize=14;fontStyle=0;strokeWidth=2;resizeParent=0;resizeLast=1;shadow=0;dashed=0;align=center;" vertex="1" parent="WIyWlLk6GJQsqaUBKTNV-1">
          <mxGeometry x="40" y="240" width="160" height="120" as="geometry" />
        </mxCell>
        <mxCell id="EivdhIYTFzwHok7C5iKz-46" value="+ id&#xa;+ name&#xa;+ email&#xa;+ birthday&#xa;" style="align=left;strokeColor=none;fillColor=none;spacingLeft=4;fontSize=12;verticalAlign=top;resizable=0;rotatable=0;part=1;" vertex="1" parent="EivdhIYTFzwHok7C5iKz-45">
          <mxGeometry y="30" width="160" height="90" as="geometry" />
        </mxCell>
      </root>
    </mxGraphModel>
  </diagram>
</mxfile>
